# xmcd
#
# Track frame offsets:
#	183
#	11950
#	23923
#	35560
#	48445
#	60565
#	73193
#	83093
#	94535
#	106815
#	117495
#	131003
#	145240
#	154488
#	165738
#	178420
#	191313
#	203493
#	216748
#	228520
#	240363
#	249548
#	265620
#	274125
#	288660
#
# Disc length: 4013 seconds
#
# Revision: 0
# Processed by: cddbd v1.4PL0 Copyright (c) Steve Scherf et al.
# Submitted via: dBpowerAMP V4.0
#
DISCID=750fab19
DTITLE=Lightnin' Hopkins - Lightnin' Hobkins BoB (1947 - 1969)
DYEAR=1900
DGENRE=Acoustic Blues
TTITLE0=Short Haired Woman
TTITLE1=Can't Get That Woman Off My Mind
TTITLE2=Lightning Blues
TTITLE3=Whiskey Headed Woman (Liquor Drinkin' Woman)
TTITLE4=Lonesome Home (Ain't It Lonesome)
TTITLE5=Zolo Go (Organ Blues)
TTITLE6=Henny Penny Blues
TTITLE7=Jazz Blues
TTITLE8=Beggin' You To Stay (Someday [Baby])
TTITLE9=Don't Keep My Baby Long
TTITLE10=Jake Head (Boogie)
TTITLE11=Tell Me (Pretty Baby)
TTITLE12=Give Me Back That Wig (Wig Wearing Woman)
TTITLE13=Santa Fe (Blues)
TTITLE14=New York Boogie
TTITLE15=Late In The Evening
TTITLE16=Walkin' In The Streets
TTITLE17=Mussy Haired Woman
TTITLE18=The Dirty Dozens
TTITLE19=Baby
TTITLE20=I Hear You Calling
TTITLE21=Rock Me Baby
TTITLE22=Back Door Friend
TTITLE23=Trouble In Mind
TTITLE24=What'd I Say
EXTD=william hale
EXTT0=
EXTT1=
EXTT2=
EXTT3=
EXTT4=
EXTT5=
EXTT6=
EXTT7=
EXTT8=
EXTT9=
EXTT10=
EXTT11=
EXTT12=
EXTT13=
EXTT14=
EXTT15=
EXTT16=
EXTT17=
EXTT18=
EXTT19=
EXTT20=
EXTT21=
EXTT22=
EXTT23=
EXTT24=
PLAYORDER=
